<svg id="svg" version="1.1" xmlns="http://www.w3.org/2000/svg" xmlns:xlink="http://www.w3.org/1999/xlink" width="100" height="40" viewBox="0, 0, 400,208.69565217391303"><g id="svgg"><path id="path0" d="M154.107 74.289 C 152.669 74.802,151.470 75.979,150.938 77.400 C 150.529 78.493,150.522 79.057,150.522 109.909 C 150.522 145.341,150.339 141.958,152.259 141.968 C 160.382 142.006,167.978 141.917,168.113 141.783 C 168.206 141.690,168.280 134.980,168.277 126.871 C 168.275 118.763,168.328 111.984,168.396 111.806 C 168.651 111.144,169.259 111.539,171.357 113.727 C 184.146 127.063,186.493 129.275,188.259 129.654 C 191.082 130.259,190.993 130.331,202.370 118.476 C 205.786 114.916,208.763 111.876,208.985 111.720 C 210.052 110.968,210.021 110.515,210.021 126.586 C 210.021 139.256,210.066 141.531,210.319 141.741 C 210.939 142.256,227.171 142.048,227.610 141.520 C 227.954 141.106,227.975 139.298,227.975 110.065 L 227.975 79.048 227.532 77.736 C 226.533 74.779,223.496 73.262,220.549 74.248 C 219.289 74.669,217.566 76.379,204.378 90.292 C 201.395 93.440,199.882 95.025,196.610 98.434 C 195.066 100.042,192.873 102.365,191.735 103.598 C 189.499 106.019,188.889 106.331,188.253 105.376 C 188.081 105.117,187.201 104.153,186.298 103.232 C 185.395 102.312,183.861 100.715,182.889 99.683 C 181.917 98.652,179.334 95.938,177.148 93.653 C 174.962 91.367,173.078 89.394,172.961 89.269 C 158.688 73.914,157.596 73.045,154.107 74.289 M242.387 74.305 C 241.253 74.765,239.759 76.355,239.464 77.414 C 239.124 78.641,239.170 141.149,239.512 141.617 C 239.835 142.059,256.397 142.163,256.923 141.726 C 257.154 141.534,257.203 137.119,257.203 116.509 C 257.203 97.355,257.261 91.466,257.453 91.273 C 257.980 90.746,273.511 90.935,274.576 91.482 C 279.857 94.192,280.559 101.554,275.917 105.552 C 273.952 107.245,272.885 107.525,267.745 107.696 L 263.779 107.829 263.718 108.664 C 263.665 109.396,263.842 109.781,265.162 111.795 C 265.989 113.058,266.980 114.571,267.362 115.157 C 267.745 115.743,268.058 116.323,268.058 116.445 C 268.058 116.567,268.131 116.698,268.220 116.736 C 268.309 116.775,268.884 117.604,269.498 118.580 C 270.111 119.556,270.826 120.684,271.086 121.086 C 271.346 121.487,272.181 122.803,272.941 124.008 C 273.702 125.214,274.418 126.341,274.534 126.514 C 274.649 126.686,275.142 127.460,275.629 128.234 C 276.486 129.599,277.868 131.779,279.234 133.925 C 279.600 134.499,280.491 135.908,281.214 137.056 C 283.730 141.049,284.202 141.735,284.518 141.857 C 284.930 142.014,303.099 142.007,303.355 141.849 C 303.776 141.589,303.488 140.896,302.035 138.671 C 301.203 137.396,299.864 135.308,299.061 134.033 C 298.257 132.757,296.824 130.533,295.877 129.090 C 294.930 127.648,294.154 126.430,294.154 126.384 C 294.154 126.338,293.829 125.837,293.430 125.270 C 293.032 124.704,292.535 123.930,292.325 123.550 C 292.116 123.171,291.234 121.780,290.365 120.459 C 287.921 116.743,287.910 117.385,290.465 114.795 C 292.142 113.094,294.776 109.316,294.782 108.600 C 294.783 108.520,294.922 108.190,295.091 107.865 C 295.612 106.866,296.245 104.484,296.670 101.923 C 298.138 93.078,294.449 83.975,287.265 78.717 C 286.634 78.255,285.929 77.729,285.699 77.550 C 284.111 76.305,279.821 74.733,276.618 74.222 C 273.363 73.703,243.696 73.775,242.387 74.305 M295.805 74.387 C 295.611 74.811,297.571 78.855,311.877 107.561 C 330.797 145.524,328.590 141.807,332.284 141.929 C 335.909 142.049,336.000 141.947,340.854 132.294 C 364.292 85.688,369.583 74.940,369.347 74.422 L 369.111 73.904 359.644 73.904 L 350.177 73.904 349.766 74.374 C 349.359 74.839,347.004 79.529,338.843 96.138 C 336.529 100.846,334.552 104.838,334.448 105.010 C 334.091 105.601,333.442 106.994,333.304 107.463 C 333.139 108.025,332.122 108.369,331.970 107.914 C 331.849 107.550,330.800 105.422,318.401 80.376 C 316.838 77.218,315.370 74.473,315.138 74.276 C 314.755 73.949,313.896 73.917,305.371 73.911 L 296.024 73.904 295.805 74.387 M58.024 116.711 C 52.823 121.989,49.230 125.797,49.014 126.262 C 48.616 127.116,48.502 133.521,48.780 139.320 L 48.917 142.171 66.384 142.171 L 83.852 142.171 84.267 141.701 C 85.448 140.366,85.420 140.572,85.395 133.499 C 85.376 128.053,85.316 126.815,85.044 126.162 C 84.667 125.260,67.501 107.933,66.984 107.933 C 66.814 107.933,62.782 111.883,58.024 116.711 " stroke="none" fill="#0e804b" fill-rule="evenodd"></path><path id="path1" d="M115.031 60.479 C 113.991 60.834,67.432 107.057,67.432 107.735 C 67.432 107.916,71.317 111.956,76.065 116.714 C 80.812 121.472,84.849 125.660,85.035 126.020 C 85.324 126.582,85.376 127.650,85.395 133.490 C 85.420 141.188,85.417 141.203,83.809 142.117 L 82.985 142.586 65.988 142.580 C 52.369 142.576,48.956 142.628,48.820 142.843 C 48.471 143.392,48.613 151.271,48.989 152.240 C 49.517 153.599,50.606 154.814,51.836 155.416 L 52.937 155.955 86.124 155.900 L 119.311 155.846 120.151 155.299 C 121.258 154.578,122.405 153.131,122.715 152.063 C 123.137 150.612,123.070 65.356,122.646 63.929 C 121.776 60.999,118.224 59.390,115.031 60.479 " stroke="none" fill="#f69e1d" fill-rule="evenodd"></path><path id="path2" d="M0.000 104.384 L 0.000 208.768 200.000 208.768 L 400.000 208.768 400.000 104.384 L 400.000 0.000 200.000 0.000 L 0.000 0.000 0.000 104.384 M119.081 60.343 C 120.658 60.830,121.943 61.947,122.579 63.384 C 123.037 64.421,123.204 151.327,122.749 152.522 C 122.389 153.471,121.179 154.811,120.098 155.458 L 119.102 156.054 85.804 156.054 L 52.505 156.054 51.549 155.481 C 48.961 153.930,48.613 152.983,48.634 147.557 C 48.646 144.544,48.577 143.074,48.413 142.876 C 48.217 142.640,46.499 142.589,38.739 142.589 C 27.952 142.589,27.870 142.579,26.137 141.020 C 24.930 139.935,24.370 138.965,24.027 137.363 C 23.728 135.973,23.721 81.780,24.018 79.386 C 24.538 75.208,28.271 72.765,32.386 73.908 C 33.566 74.236,33.820 74.476,49.919 90.468 C 66.381 106.822,66.942 107.367,67.227 107.269 C 67.332 107.232,77.638 97.008,90.129 84.547 C 102.620 72.087,113.215 61.599,113.674 61.241 C 115.347 59.938,116.922 59.676,119.081 60.343 M158.612 74.104 C 159.100 74.362,159.499 74.657,159.499 74.760 C 159.499 74.863,159.595 74.948,159.713 74.948 C 159.980 74.948,161.619 76.610,168.049 83.405 C 169.134 84.552,171.248 86.771,172.746 88.337 C 174.244 89.902,176.691 92.478,178.184 94.061 C 179.676 95.645,182.182 98.263,183.751 99.879 C 186.619 102.834,187.024 103.266,188.239 104.666 C 188.933 105.466,189.428 105.625,189.708 105.136 C 189.855 104.879,192.783 101.768,198.264 96.043 C 199.203 95.062,200.459 93.742,201.055 93.111 C 201.651 92.479,202.949 91.116,203.939 90.082 C 204.930 89.048,207.150 86.715,208.873 84.896 C 214.301 79.165,214.795 78.650,216.969 76.461 C 218.138 75.284,219.183 74.322,219.291 74.322 C 219.399 74.322,219.669 74.157,219.891 73.956 C 220.216 73.661,220.683 73.591,222.308 73.591 C 225.103 73.591,226.272 74.344,227.981 77.244 C 228.294 77.776,228.592 139.636,228.290 141.232 C 228.011 142.698,228.002 142.699,218.685 142.641 L 210.334 142.589 209.865 142.015 L 209.397 141.441 209.396 126.891 C 209.395 118.889,209.321 112.296,209.231 112.241 C 209.140 112.185,208.459 112.804,207.717 113.617 C 206.975 114.430,205.334 116.144,204.071 117.425 C 202.808 118.707,199.708 121.897,197.182 124.515 C 192.017 129.867,191.453 130.271,189.146 130.271 C 186.766 130.271,186.556 130.106,179.019 122.314 C 177.526 120.771,174.988 118.148,173.378 116.487 C 171.769 114.825,170.216 113.177,169.926 112.824 C 168.993 111.686,168.995 111.657,169.054 126.564 C 169.094 136.663,169.043 140.975,168.879 141.372 C 168.355 142.636,168.681 142.592,159.538 142.634 L 151.161 142.674 150.633 142.177 L 150.104 141.681 150.104 109.720 L 150.104 77.760 150.580 76.870 C 151.400 75.338,153.060 73.889,154.298 73.626 C 155.447 73.382,157.722 73.634,158.612 74.104 M278.334 73.960 C 278.760 74.159,279.324 74.322,279.586 74.323 C 279.848 74.323,280.332 74.464,280.661 74.636 C 280.989 74.807,281.398 74.948,281.568 74.948 C 281.738 74.948,282.126 75.088,282.431 75.260 C 282.736 75.431,283.220 75.667,283.507 75.785 C 283.794 75.902,284.311 76.183,284.656 76.410 C 285.000 76.636,285.423 76.896,285.595 76.986 C 286.512 77.466,287.474 78.144,287.474 78.309 C 287.474 78.412,287.576 78.497,287.701 78.497 C 288.133 78.497,291.731 82.109,292.693 83.508 C 292.865 83.759,293.171 84.157,293.372 84.394 C 293.573 84.630,293.737 84.950,293.737 85.105 C 293.737 85.260,293.823 85.386,293.928 85.386 C 294.564 85.386,296.813 91.341,297.161 93.946 C 298.303 102.487,295.973 110.089,290.590 115.386 C 288.687 117.258,288.746 117.091,289.562 118.300 C 289.906 118.810,290.188 119.271,290.188 119.324 C 290.188 119.377,290.517 119.888,290.919 120.459 C 291.320 121.031,291.649 121.548,291.649 121.608 C 291.649 121.667,291.978 122.184,292.380 122.756 C 292.782 123.327,293.111 123.831,293.111 123.874 C 293.111 123.917,293.721 124.860,294.468 125.968 C 295.214 127.077,295.825 128.030,295.825 128.086 C 295.825 128.142,296.153 128.656,296.555 129.228 C 296.957 129.799,297.286 130.319,297.286 130.382 C 297.286 130.446,297.380 130.611,297.496 130.750 C 297.705 131.001,298.426 132.110,300.310 135.073 C 301.567 137.050,302.515 138.517,303.474 139.964 C 305.206 142.580,304.988 142.641,293.951 142.647 C 283.264 142.653,284.253 142.923,282.150 139.423 C 282.035 139.232,281.633 138.574,281.256 137.962 C 280.879 137.349,280.456 136.660,280.317 136.430 C 280.177 136.200,280.008 135.966,279.940 135.908 C 279.873 135.851,279.547 135.334,279.215 134.760 C 278.884 134.186,278.540 133.622,278.450 133.507 C 278.360 133.392,277.894 132.688,277.416 131.942 C 276.937 131.195,276.280 130.181,275.955 129.687 C 275.631 129.193,275.365 128.746,275.365 128.693 C 275.365 128.640,275.060 128.147,274.687 127.597 C 273.969 126.539,273.838 126.333,272.935 124.843 C 272.622 124.327,272.242 123.780,272.091 123.628 C 271.940 123.476,271.816 123.226,271.816 123.071 C 271.816 122.917,271.746 122.759,271.660 122.721 C 271.503 122.651,270.920 121.808,269.807 120.042 C 268.868 118.551,268.717 118.299,268.436 117.745 C 268.291 117.458,268.122 117.176,268.063 117.119 C 267.849 116.913,267.015 115.672,267.015 115.560 C 267.015 115.496,266.686 114.977,266.284 114.405 C 265.882 113.833,265.553 113.317,265.553 113.257 C 265.553 113.197,265.224 112.680,264.823 112.109 C 264.421 111.537,264.092 110.974,264.092 110.858 C 264.092 110.742,264.015 110.647,263.922 110.647 C 263.651 110.647,263.048 109.228,263.048 108.589 C 263.048 107.273,263.507 107.140,268.372 107.051 C 272.687 106.972,272.770 106.962,273.695 106.411 C 274.212 106.103,274.774 105.784,274.944 105.703 C 275.220 105.571,276.361 104.437,276.942 103.716 C 278.926 101.255,278.927 96.143,276.943 94.023 C 276.822 93.894,276.581 93.580,276.409 93.325 C 276.237 93.070,275.908 92.777,275.678 92.673 C 275.449 92.570,275.120 92.397,274.948 92.289 C 273.618 91.457,273.441 91.441,265.667 91.441 C 260.076 91.441,258.056 91.505,257.871 91.691 C 257.679 91.883,257.620 97.753,257.620 116.839 L 257.620 141.737 257.163 142.163 C 256.728 142.569,256.419 142.591,250.535 142.641 C 238.992 142.739,239.381 142.773,238.854 141.617 C 238.454 140.738,238.539 78.650,238.941 77.493 C 239.536 75.787,240.370 74.811,241.950 73.970 L 242.902 73.463 260.230 73.531 C 276.127 73.594,277.621 73.629,278.334 73.960 M315.391 73.803 C 315.776 74.073,317.553 77.532,323.057 88.727 C 323.480 89.588,323.911 90.433,324.014 90.605 C 324.117 90.778,324.444 91.435,324.740 92.067 C 325.308 93.279,325.464 93.585,325.855 94.259 C 325.988 94.489,326.192 94.897,326.308 95.166 C 326.424 95.436,327.586 97.831,328.891 100.490 C 330.196 103.148,331.322 105.465,331.393 105.637 C 331.463 105.809,331.609 106.091,331.716 106.263 C 331.824 106.435,331.962 106.741,332.024 106.942 C 332.147 107.338,332.985 107.454,332.985 107.075 C 332.985 106.877,338.293 95.904,338.831 94.990 C 339.017 94.674,339.962 92.774,342.881 86.848 C 343.758 85.068,344.558 83.471,344.659 83.299 C 344.761 83.126,345.805 81.028,346.981 78.635 C 349.849 72.796,348.153 73.486,359.628 73.486 L 369.281 73.486 369.713 74.037 C 370.246 74.714,370.242 74.822,369.632 75.992 C 369.362 76.508,368.895 77.448,368.592 78.079 C 368.290 78.711,367.940 79.410,367.815 79.633 C 367.690 79.856,367.075 81.077,366.449 82.347 C 365.824 83.617,365.231 84.796,365.133 84.969 C 365.034 85.141,364.230 86.738,363.345 88.518 C 362.461 90.297,361.406 92.411,361.001 93.215 C 360.597 94.019,359.192 96.837,357.880 99.478 C 356.567 102.119,355.276 104.703,355.011 105.219 C 354.746 105.736,353.337 108.554,351.880 111.482 C 350.423 114.410,349.014 117.229,348.749 117.745 C 348.484 118.262,347.735 119.765,347.085 121.086 C 346.436 122.406,345.820 123.627,345.718 123.800 C 345.616 123.972,345.085 125.005,344.537 126.096 C 343.990 127.187,343.468 128.111,343.378 128.149 C 343.289 128.187,343.215 128.310,343.215 128.423 C 343.215 128.737,342.170 130.874,341.949 131.010 C 341.842 131.077,341.754 131.307,341.754 131.521 C 341.754 131.736,341.613 132.053,341.441 132.225 C 341.268 132.397,341.127 132.598,341.127 132.670 C 341.127 132.919,340.057 135.065,339.878 135.176 C 339.779 135.237,339.636 135.567,339.561 135.911 C 339.486 136.254,339.338 136.534,339.232 136.534 C 339.126 136.534,339.038 136.652,339.036 136.795 C 339.034 136.939,338.756 137.573,338.418 138.205 C 338.080 138.836,337.706 139.571,337.586 139.837 C 335.679 144.085,327.877 143.177,326.824 138.584 C 326.753 138.277,326.561 137.913,326.396 137.776 C 326.231 137.639,326.096 137.356,326.096 137.148 C 326.096 136.939,326.008 136.713,325.900 136.647 C 325.793 136.581,325.461 135.988,325.162 135.330 C 324.863 134.672,324.534 133.993,324.431 133.820 C 324.153 133.355,322.812 130.664,322.559 130.063 C 322.438 129.776,322.245 129.376,322.130 129.175 C 321.564 128.188,320.803 126.680,320.471 125.887 C 320.350 125.600,320.157 125.201,320.042 125.000 C 319.277 123.664,318.372 121.785,318.372 121.533 C 318.372 121.421,318.300 121.298,318.213 121.260 C 318.076 121.200,316.555 118.227,316.201 117.328 C 316.133 117.156,315.983 116.850,315.868 116.649 C 315.311 115.682,314.542 114.158,314.208 113.361 C 314.087 113.074,313.903 112.698,313.798 112.526 C 313.380 111.840,303.758 92.368,303.758 92.208 C 303.758 92.114,303.617 91.896,303.445 91.724 C 303.272 91.552,303.132 91.235,303.132 91.020 C 303.132 90.806,303.048 90.579,302.946 90.516 C 302.844 90.452,301.426 87.699,299.794 84.397 C 298.162 81.094,296.746 78.252,296.647 78.079 C 296.548 77.907,296.130 77.083,295.718 76.247 L 294.969 74.728 295.411 74.107 L 295.853 73.486 305.396 73.486 C 313.589 73.486,315.002 73.531,315.391 73.803 " stroke="none" fill="#fbfbfb" fill-rule="evenodd"></path><path id="path3" d="M43.856 86.249 C 44.041 86.594,44.134 86.632,44.268 86.416 C 44.481 86.070,44.333 85.804,43.926 85.804 C 43.676 85.804,43.663 85.888,43.856 86.249 M44.825 87.683 C 44.710 88.119,44.838 88.185,45.390 87.973 C 45.851 87.797,45.804 87.265,45.327 87.265 C 45.109 87.265,44.885 87.452,44.825 87.683 M45.740 88.361 C 45.595 88.748,45.642 88.844,46.007 88.904 C 46.751 89.027,46.939 89.979,46.220 89.979 C 45.829 89.979,45.847 90.796,46.242 90.947 C 46.719 91.131,46.636 91.858,46.138 91.858 C 45.906 91.858,45.720 91.719,45.720 91.545 C 45.720 91.352,45.524 91.232,45.210 91.232 C 44.930 91.232,44.565 91.039,44.400 90.804 C 44.106 90.383,43.945 90.376,35.777 90.397 C 31.199 90.409,27.359 90.403,27.244 90.384 C 26.774 90.305,26.220 90.452,25.943 90.729 C 25.781 90.891,25.721 91.023,25.810 91.023 C 25.898 91.023,25.865 91.128,25.737 91.257 C 25.608 91.386,25.548 91.611,25.605 91.758 C 25.661 91.905,25.616 92.081,25.505 92.149 C 25.387 92.222,25.244 91.681,25.160 90.850 C 25.081 90.066,24.946 89.311,24.860 89.171 C 24.673 88.869,24.426 109.997,24.426 126.242 L 24.426 137.801 24.943 138.786 C 25.608 140.053,25.785 140.258,27.013 141.189 L 28.035 141.962 38.420 141.962 L 48.805 141.962 48.713 134.499 C 48.628 127.620,48.650 126.975,48.997 126.263 C 49.211 125.823,53.069 121.741,57.933 116.805 C 62.641 112.029,66.519 108.048,66.550 107.959 C 66.604 107.806,63.065 104.185,59.676 100.925 C 58.832 100.114,57.790 99.057,57.360 98.577 C 56.929 98.096,56.545 97.704,56.505 97.704 C 56.328 97.704,54.663 96.149,52.313 93.789 C 50.912 92.383,49.668 91.232,49.548 91.232 C 49.428 91.232,49.087 91.006,48.790 90.731 L 48.249 90.229 47.962 90.662 C 47.795 90.913,47.571 91.030,47.428 90.942 C 47.082 90.728,47.121 90.198,47.495 90.055 C 47.823 89.929,47.936 89.353,47.632 89.353 C 47.340 89.353,46.347 88.419,46.347 88.146 C 46.347 87.715,45.926 87.865,45.740 88.361 M38.944 88.712 C 38.790 88.962,39.183 89.209,39.461 89.038 C 39.694 88.893,39.541 88.518,39.248 88.518 C 39.147 88.518,39.010 88.605,38.944 88.712 M48.815 91.719 C 48.855 91.925,48.748 92.067,48.554 92.067 C 48.360 92.067,48.225 91.888,48.225 91.632 C 48.225 91.123,48.713 91.195,48.815 91.719 M45.103 92.350 C 44.785 92.668,44.411 92.282,44.700 91.934 C 44.902 91.690,44.986 91.683,45.119 91.899 C 45.210 92.047,45.203 92.250,45.103 92.350 M48.121 92.812 C 48.121 93.031,47.956 93.241,47.755 93.280 C 47.293 93.369,47.017 92.716,47.412 92.467 C 47.826 92.205,48.121 92.349,48.121 92.812 M49.951 92.818 C 50.225 93.092,49.857 93.547,49.560 93.301 C 49.403 93.170,49.325 92.980,49.388 92.878 C 49.520 92.665,49.771 92.638,49.951 92.818 " stroke="none" fill="#14ce8c" fill-rule="evenodd"></path><path id="path4" d="M116.649 60.064 C 116.908 60.114,117.330 60.114,117.589 60.064 C 117.847 60.014,117.636 59.973,117.119 59.973 C 116.602 59.973,116.391 60.014,116.649 60.064 M111.994 62.683 L 111.169 63.570 112.056 62.745 C 112.882 61.977,113.040 61.795,112.882 61.795 C 112.848 61.795,112.448 62.195,111.994 62.683 M100.835 73.800 C 100.328 74.316,99.960 74.739,100.017 74.739 C 100.075 74.739,100.537 74.316,101.044 73.800 C 101.551 73.283,101.919 72.860,101.861 72.860 C 101.804 72.860,101.342 73.283,100.835 73.800 M154.298 73.626 C 153.060 73.889,151.400 75.338,150.580 76.870 L 150.104 77.760 150.104 109.720 L 150.104 141.681 150.633 142.177 L 151.161 142.674 159.538 142.634 C 168.681 142.592,168.355 142.636,168.879 141.372 C 169.043 140.975,169.094 136.663,169.054 126.564 C 168.995 111.657,168.993 111.686,169.926 112.824 C 170.216 113.177,171.769 114.825,173.378 116.487 C 174.988 118.148,177.526 120.771,179.019 122.314 C 186.556 130.106,186.766 130.271,189.146 130.271 C 191.453 130.271,192.017 129.867,197.182 124.515 C 199.708 121.897,202.808 118.707,204.071 117.425 C 205.334 116.144,206.975 114.430,207.717 113.617 C 208.459 112.804,209.140 112.185,209.231 112.241 C 209.321 112.296,209.395 118.889,209.396 126.891 L 209.397 141.441 209.865 142.015 L 210.334 142.589 218.685 142.641 C 228.002 142.699,228.011 142.698,228.290 141.232 C 228.592 139.636,228.294 77.776,227.981 77.244 C 226.272 74.344,225.103 73.591,222.308 73.591 C 220.683 73.591,220.216 73.661,219.891 73.956 C 219.669 74.157,219.399 74.322,219.291 74.322 C 219.183 74.322,218.138 75.284,216.969 76.461 C 214.795 78.650,214.301 79.165,208.873 84.896 C 207.150 86.715,204.930 89.048,203.939 90.082 C 202.949 91.116,201.651 92.479,201.055 93.111 C 200.459 93.742,199.203 95.062,198.264 96.043 C 192.783 101.768,189.855 104.879,189.708 105.136 C 189.428 105.625,188.933 105.466,188.239 104.666 C 187.024 103.266,186.619 102.834,183.751 99.879 C 182.182 98.263,179.676 95.645,178.184 94.061 C 176.691 92.478,174.244 89.902,172.746 88.337 C 171.248 86.771,169.134 84.552,168.049 83.405 C 161.619 76.610,159.980 74.948,159.713 74.948 C 159.595 74.948,159.499 74.863,159.499 74.760 C 159.499 74.028,155.999 73.265,154.298 73.626 M241.950 73.970 C 240.370 74.811,239.536 75.787,238.941 77.493 C 238.539 78.650,238.454 140.738,238.854 141.617 C 239.381 142.773,238.992 142.739,250.535 142.641 C 256.419 142.591,256.728 142.569,257.163 142.163 L 257.620 141.737 257.620 116.839 C 257.620 97.753,257.679 91.883,257.871 91.691 C 258.056 91.505,260.076 91.441,265.667 91.441 C 273.441 91.441,273.618 91.457,274.948 92.289 C 275.120 92.397,275.449 92.570,275.678 92.673 C 275.908 92.777,276.237 93.070,276.409 93.325 C 276.581 93.580,276.822 93.894,276.943 94.023 C 278.927 96.143,278.926 101.255,276.942 103.716 C 276.361 104.437,275.220 105.571,274.944 105.703 C 274.774 105.784,274.212 106.103,273.695 106.411 C 272.770 106.962,272.687 106.972,268.372 107.051 C 263.507 107.140,263.048 107.273,263.048 108.589 C 263.048 109.228,263.651 110.647,263.922 110.647 C 264.015 110.647,264.092 110.742,264.092 110.858 C 264.092 110.974,264.421 111.537,264.823 112.109 C 265.224 112.680,265.553 113.197,265.553 113.257 C 265.553 113.317,265.882 113.833,266.284 114.405 C 266.686 114.977,267.015 115.496,267.015 115.560 C 267.015 115.672,267.849 116.913,268.063 117.119 C 268.122 117.176,268.291 117.458,268.436 117.745 C 268.717 118.299,268.868 118.551,269.807 120.042 C 270.920 121.808,271.503 122.651,271.660 122.721 C 271.746 122.759,271.816 122.917,271.816 123.071 C 271.816 123.226,271.940 123.476,272.091 123.628 C 272.242 123.780,272.622 124.327,272.935 124.843 C 273.838 126.333,273.969 126.539,274.687 127.597 C 275.060 128.147,275.365 128.640,275.365 128.693 C 275.365 128.746,275.631 129.193,275.955 129.687 C 276.280 130.181,276.937 131.195,277.416 131.942 C 277.894 132.688,278.360 133.392,278.450 133.507 C 278.540 133.622,278.884 134.186,279.215 134.760 C 279.547 135.334,279.873 135.851,279.940 135.908 C 280.008 135.966,280.177 136.200,280.317 136.430 C 280.456 136.660,280.879 137.349,281.256 137.962 C 281.633 138.574,282.035 139.232,282.150 139.423 C 284.253 142.923,283.264 142.653,293.951 142.647 C 304.988 142.641,305.206 142.580,303.474 139.964 C 302.515 138.517,301.567 137.050,300.310 135.073 C 298.426 132.110,297.705 131.001,297.496 130.750 C 297.380 130.611,297.286 130.446,297.286 130.382 C 297.286 130.319,296.957 129.799,296.555 129.228 C 296.153 128.656,295.825 128.142,295.825 128.086 C 295.825 128.030,295.214 127.077,294.468 125.968 C 293.721 124.860,293.111 123.917,293.111 123.874 C 293.111 123.831,292.782 123.327,292.380 122.756 C 291.978 122.184,291.649 121.667,291.649 121.608 C 291.649 121.548,291.320 121.031,290.919 120.459 C 290.517 119.888,290.188 119.377,290.188 119.324 C 290.188 119.271,289.906 118.810,289.562 118.300 C 288.746 117.091,288.687 117.258,290.590 115.386 C 295.973 110.089,298.303 102.487,297.161 93.946 C 296.813 91.341,294.564 85.386,293.928 85.386 C 293.823 85.386,293.737 85.260,293.737 85.105 C 293.737 84.950,293.573 84.630,293.372 84.394 C 293.171 84.157,292.865 83.759,292.693 83.508 C 291.731 82.109,288.133 78.497,287.701 78.497 C 287.576 78.497,287.474 78.412,287.474 78.309 C 287.474 78.144,286.512 77.466,285.595 76.986 C 285.423 76.896,285.000 76.636,284.656 76.410 C 284.311 76.183,283.794 75.902,283.507 75.785 C 283.220 75.667,282.736 75.431,282.431 75.260 C 282.126 75.088,281.738 74.948,281.568 74.948 C 281.398 74.948,280.989 74.807,280.661 74.636 C 280.332 74.464,279.848 74.323,279.586 74.323 C 279.324 74.322,278.760 74.159,278.334 73.960 C 277.621 73.629,276.127 73.594,260.230 73.531 L 242.902 73.463 241.950 73.970 M295.411 74.107 L 294.969 74.728 295.718 76.247 C 296.130 77.083,296.548 77.907,296.647 78.079 C 296.746 78.252,298.162 81.094,299.794 84.397 C 301.426 87.699,302.844 90.452,302.946 90.516 C 303.048 90.579,303.132 90.806,303.132 91.020 C 303.132 91.235,303.272 91.552,303.445 91.724 C 303.617 91.896,303.758 92.114,303.758 92.208 C 303.758 92.368,313.380 111.840,313.798 112.526 C 313.903 112.698,314.087 113.074,314.208 113.361 C 314.542 114.158,315.311 115.682,315.868 116.649 C 315.983 116.850,316.133 117.156,316.201 117.328 C 316.555 118.227,318.076 121.200,318.213 121.260 C 318.300 121.298,318.372 121.421,318.372 121.533 C 318.372 121.785,319.277 123.664,320.042 125.000 C 320.157 125.201,320.350 125.600,320.471 125.887 C 320.803 126.680,321.564 128.188,322.130 129.175 C 322.245 129.376,322.438 129.776,322.559 130.063 C 322.812 130.664,324.153 133.355,324.431 133.820 C 324.534 133.993,324.863 134.672,325.162 135.330 C 325.461 135.988,325.793 136.581,325.900 136.647 C 326.008 136.713,326.096 136.939,326.096 137.148 C 326.096 137.356,326.231 137.639,326.396 137.776 C 326.561 137.913,326.753 138.277,326.824 138.584 C 327.877 143.177,335.679 144.085,337.586 139.837 C 337.706 139.571,338.080 138.836,338.418 138.205 C 338.756 137.573,339.034 136.939,339.036 136.795 C 339.038 136.652,339.126 136.534,339.232 136.534 C 339.338 136.534,339.486 136.254,339.561 135.911 C 339.636 135.567,339.779 135.237,339.878 135.176 C 340.057 135.065,341.127 132.919,341.127 132.670 C 341.127 132.598,341.268 132.397,341.441 132.225 C 341.613 132.053,341.754 131.736,341.754 131.521 C 341.754 131.307,341.842 131.077,341.949 131.010 C 342.170 130.874,343.215 128.737,343.215 128.423 C 343.215 128.310,343.289 128.187,343.378 128.149 C 343.468 128.111,343.990 127.187,344.537 126.096 C 345.085 125.005,345.616 123.972,345.718 123.800 C 345.820 123.627,346.436 122.406,347.085 121.086 C 347.735 119.765,348.484 118.262,348.749 117.745 C 349.014 117.229,350.423 114.410,351.880 111.482 C 353.337 108.554,354.746 105.736,355.011 105.219 C 355.276 104.703,356.567 102.119,357.880 99.478 C 359.192 96.837,360.597 94.019,361.001 93.215 C 361.406 92.411,362.461 90.297,363.345 88.518 C 364.230 86.738,365.034 85.141,365.133 84.969 C 365.231 84.796,365.824 83.617,366.449 82.347 C 367.075 81.077,367.690 79.856,367.815 79.633 C 367.940 79.410,368.290 78.711,368.592 78.079 C 368.895 77.448,369.362 76.508,369.632 75.992 C 370.242 74.822,370.246 74.714,369.713 74.037 L 369.281 73.486 359.628 73.486 C 348.153 73.486,349.849 72.796,346.981 78.635 C 345.805 81.028,344.761 83.126,344.659 83.299 C 344.558 83.471,343.758 85.068,342.881 86.848 C 339.962 92.774,339.017 94.674,338.831 94.990 C 338.293 95.904,332.985 106.877,332.985 107.075 C 332.985 107.454,332.147 107.338,332.024 106.942 C 331.962 106.741,331.824 106.435,331.716 106.263 C 331.609 106.091,331.463 105.809,331.393 105.637 C 331.322 105.465,330.196 103.148,328.891 100.490 C 327.586 97.831,326.424 95.436,326.308 95.166 C 326.192 94.897,325.988 94.489,325.855 94.259 C 325.464 93.585,325.308 93.279,324.740 92.067 C 324.444 91.435,324.117 90.778,324.014 90.605 C 323.911 90.433,323.480 89.588,323.057 88.727 C 317.553 77.532,315.776 74.073,315.391 73.803 C 315.002 73.531,313.589 73.486,305.396 73.486 L 295.853 73.486 295.411 74.107 M27.662 74.187 C 25.565 75.167,24.323 76.940,24.018 79.386 C 23.721 81.780,23.728 135.973,24.027 137.363 C 24.370 138.965,24.930 139.935,26.137 141.020 C 27.870 142.578,27.953 142.589,38.723 142.589 C 45.946 142.589,48.202 142.649,48.401 142.848 C 48.608 143.054,48.694 143.053,48.825 142.841 C 48.956 142.628,52.424 142.576,65.988 142.580 C 75.336 142.584,83.107 142.508,83.256 142.413 C 83.404 142.317,71.051 142.173,55.803 142.093 L 28.079 141.947 27.297 141.404 C 26.124 140.592,25.480 139.881,24.926 138.787 L 24.426 137.801 24.426 126.242 C 24.426 109.997,24.673 88.869,24.860 89.171 C 24.946 89.311,25.081 90.066,25.160 90.850 C 25.244 91.681,25.387 92.222,25.505 92.149 C 25.616 92.081,25.661 91.905,25.605 91.758 C 25.548 91.611,25.608 91.386,25.737 91.257 C 25.865 91.128,25.898 91.023,25.810 91.023 C 25.721 91.023,25.781 90.891,25.943 90.729 C 26.220 90.452,26.774 90.305,27.244 90.384 C 27.359 90.403,31.199 90.409,35.777 90.397 C 43.945 90.376,44.106 90.383,44.400 90.804 C 44.565 91.039,44.930 91.232,45.210 91.232 C 45.524 91.232,45.720 91.352,45.720 91.545 C 45.720 91.719,45.906 91.858,46.138 91.858 C 46.636 91.858,46.719 91.131,46.242 90.947 C 45.847 90.796,45.829 89.979,46.220 89.979 C 46.380 89.979,46.554 89.862,46.607 89.718 C 46.776 89.258,46.535 88.935,46.023 88.935 C 45.598 88.935,45.550 88.868,45.695 88.476 C 45.886 87.959,46.347 87.713,46.347 88.128 C 46.347 88.415,47.331 89.353,47.632 89.353 C 47.936 89.353,47.823 89.929,47.495 90.055 C 47.121 90.198,47.082 90.728,47.428 90.942 C 47.571 91.030,47.795 90.913,47.962 90.662 L 48.249 90.229 48.790 90.731 C 49.087 91.006,49.428 91.232,49.548 91.232 C 49.668 91.232,50.912 92.383,52.313 93.789 C 54.663 96.149,56.328 97.704,56.505 97.704 C 56.545 97.704,56.929 98.096,57.360 98.577 C 57.790 99.057,58.833 100.114,59.677 100.925 C 60.521 101.737,62.447 103.631,63.956 105.133 C 66.752 107.917,67.432 108.433,67.432 107.771 C 67.432 107.575,70.509 104.313,74.269 100.523 L 81.106 93.633 74.181 100.504 C 67.362 107.271,67.249 107.371,66.770 107.054 C 66.503 106.876,59.180 99.674,50.498 91.048 C 41.815 82.422,34.359 75.084,33.928 74.741 C 32.437 73.557,29.556 73.302,27.662 74.187 M158.572 74.728 C 159.738 75.386,161.457 77.087,168.819 84.864 C 170.884 87.046,173.037 89.311,173.604 89.897 C 174.171 90.484,175.339 91.710,176.200 92.622 C 178.215 94.756,184.889 101.755,186.606 103.534 C 187.334 104.289,188.073 105.117,188.248 105.376 C 188.893 106.329,189.498 106.020,191.735 103.598 C 192.873 102.365,195.066 100.042,196.610 98.434 C 199.882 95.025,201.395 93.440,204.378 90.292 C 217.566 76.379,219.289 74.669,220.549 74.248 C 223.316 73.323,226.442 74.751,227.480 77.413 C 228.064 78.910,228.190 140.822,227.611 141.519 C 227.171 142.048,210.940 142.257,210.319 141.741 C 210.066 141.531,210.021 139.256,210.021 126.586 C 210.021 110.515,210.052 110.968,208.985 111.720 C 208.763 111.876,205.786 114.916,202.370 118.476 C 192.225 129.047,192.187 129.082,190.644 129.514 C 187.414 130.418,187.869 130.790,171.337 113.727 C 169.203 111.524,168.645 111.159,168.396 111.806 C 168.328 111.984,168.275 118.763,168.277 126.871 C 168.280 134.980,168.206 141.690,168.113 141.783 C 167.978 141.917,160.382 142.006,152.259 141.968 C 150.339 141.958,150.522 145.341,150.522 109.909 C 150.522 79.057,150.529 78.493,150.938 77.400 C 152.091 74.319,155.644 73.076,158.572 74.728 M276.618 74.222 C 291.394 76.580,300.325 91.330,295.816 105.929 C 295.588 106.666,295.263 107.536,295.093 107.862 C 294.923 108.188,294.783 108.520,294.782 108.600 C 294.776 109.288,292.144 113.098,290.540 114.742 C 287.901 117.444,287.923 116.744,290.365 120.459 C 291.234 121.780,292.116 123.171,292.325 123.550 C 292.535 123.930,293.032 124.704,293.430 125.270 C 293.829 125.837,294.154 126.338,294.154 126.384 C 294.154 126.430,294.930 127.648,295.877 129.090 C 296.824 130.533,298.257 132.757,299.061 134.033 C 299.864 135.308,301.203 137.396,302.035 138.671 C 303.488 140.896,303.776 141.589,303.355 141.849 C 303.099 142.007,284.930 142.014,284.518 141.857 C 284.203 141.735,283.746 141.072,281.213 137.056 C 280.489 135.908,279.558 134.441,279.144 133.795 C 277.941 131.918,276.368 129.433,275.527 128.079 C 275.098 127.390,274.652 126.686,274.536 126.514 C 274.419 126.341,273.702 125.214,272.941 124.008 C 272.181 122.803,271.346 121.487,271.086 121.086 C 270.826 120.684,270.111 119.556,269.498 118.580 C 268.884 117.604,268.309 116.775,268.220 116.736 C 268.131 116.698,268.058 116.567,268.058 116.445 C 268.058 116.323,267.745 115.743,267.362 115.157 C 266.980 114.571,265.989 113.058,265.162 111.795 C 263.842 109.781,263.665 109.396,263.718 108.664 L 263.779 107.829 267.745 107.696 C 272.885 107.525,273.952 107.245,275.917 105.552 C 280.559 101.554,279.857 94.192,274.576 91.482 C 273.511 90.935,257.980 90.746,257.453 91.273 C 257.261 91.466,257.203 97.355,257.203 116.509 C 257.203 137.119,257.154 141.534,256.923 141.726 C 256.397 142.163,239.835 142.059,239.512 141.617 C 238.994 140.909,239.142 78.014,239.664 76.936 C 240.206 75.815,241.342 74.731,242.440 74.285 C 243.699 73.773,273.465 73.719,276.618 74.222 M315.138 74.276 C 315.370 74.473,316.838 77.218,318.402 80.376 C 322.579 88.807,329.552 102.905,330.793 105.428 C 331.387 106.634,331.916 107.752,331.970 107.914 C 332.084 108.257,333.194 108.067,333.194 107.704 C 333.194 107.583,335.412 103.005,338.122 97.531 C 340.832 92.057,344.468 84.713,346.202 81.211 C 347.936 77.709,349.539 74.632,349.766 74.374 L 350.177 73.904 359.644 73.904 L 369.111 73.904 369.347 74.422 C 369.583 74.940,364.292 85.688,340.854 132.294 C 336.000 141.947,335.909 142.049,332.284 141.929 C 328.590 141.807,330.797 145.524,311.877 107.561 C 297.571 78.855,295.611 74.811,295.805 74.387 L 296.024 73.904 305.371 73.911 C 313.896 73.917,314.755 73.949,315.138 74.276 M95.198 79.436 C 94.691 79.953,94.323 80.376,94.381 80.376 C 94.438 80.376,94.900 79.953,95.407 79.436 C 95.914 78.920,96.282 78.497,96.225 78.497 C 96.167 78.497,95.705 78.920,95.198 79.436 M92.484 82.150 C 91.977 82.667,91.609 83.090,91.667 83.090 C 91.724 83.090,92.186 82.667,92.693 82.150 C 93.200 81.634,93.568 81.211,93.511 81.211 C 93.453 81.211,92.991 81.634,92.484 82.150 M89.661 85.021 L 87.996 86.743 89.718 85.078 C 90.665 84.162,91.441 83.387,91.441 83.356 C 91.441 83.203,91.208 83.421,89.661 85.021 M44.337 85.970 C 44.394 86.062,44.362 86.262,44.268 86.416 C 44.134 86.632,44.041 86.594,43.856 86.249 C 43.619 85.806,44.073 85.542,44.337 85.970 M86.848 87.787 C 86.340 88.304,85.973 88.727,86.030 88.727 C 86.087 88.727,86.549 88.304,87.056 87.787 C 87.563 87.270,87.931 86.848,87.874 86.848 C 87.817 86.848,87.355 87.270,86.848 87.787 M45.720 87.556 C 45.720 87.824,45.298 88.100,44.888 88.100 C 44.793 88.100,44.765 87.912,44.825 87.683 C 44.947 87.213,45.720 87.104,45.720 87.556 M39.553 88.712 C 39.707 88.962,39.314 89.209,39.036 89.038 C 38.803 88.893,38.956 88.518,39.248 88.518 C 39.350 88.518,39.487 88.605,39.553 88.712 M83.086 91.597 L 81.106 93.633 83.142 91.653 C 85.033 89.815,85.272 89.562,85.121 89.562 C 85.090 89.562,84.174 90.478,83.086 91.597 M48.225 91.632 C 48.225 91.888,48.360 92.067,48.554 92.067 C 48.748 92.067,48.855 91.925,48.815 91.719 C 48.713 91.195,48.225 91.123,48.225 91.632 M44.700 91.934 C 44.513 92.159,44.509 92.277,44.684 92.385 C 45.008 92.585,45.324 92.231,45.119 91.899 C 44.986 91.683,44.902 91.690,44.700 91.934 M47.412 92.467 C 47.017 92.716,47.293 93.369,47.755 93.280 C 47.956 93.241,48.121 93.031,48.121 92.812 C 48.121 92.349,47.826 92.205,47.412 92.467 M49.388 92.878 C 49.325 92.980,49.403 93.170,49.560 93.301 C 49.779 93.483,49.874 93.468,49.961 93.241 C 50.140 92.776,49.645 92.463,49.388 92.878 M84.683 141.161 C 84.370 141.639,84.266 141.904,84.451 141.750 C 84.766 141.488,85.483 140.292,85.324 140.292 C 85.284 140.292,84.996 140.683,84.683 141.161 M48.659 151.775 C 48.658 152.075,49.247 153.271,49.262 152.999 C 49.266 152.926,49.132 152.550,48.964 152.164 C 48.797 151.777,48.659 151.602,48.659 151.775 M122.666 152.103 C 122.589 152.409,122.567 152.699,122.616 152.748 C 122.665 152.798,122.768 152.587,122.845 152.282 C 122.922 151.976,122.945 151.685,122.895 151.636 C 122.846 151.587,122.743 151.797,122.666 152.103 M121.489 154.123 C 120.987 154.726,120.741 155.087,120.943 154.926 C 121.349 154.602,122.635 153.027,122.493 153.027 C 122.444 153.027,121.992 153.520,121.489 154.123 M50.208 154.456 C 50.435 154.725,50.811 155.041,51.042 155.160 C 51.485 155.387,51.420 155.317,50.419 154.485 C 49.816 153.985,49.809 153.984,50.208 154.456 M51.867 155.625 C 52.090 155.804,52.418 155.942,52.597 155.933 C 52.878 155.919,52.880 155.901,52.610 155.801 C 52.437 155.737,52.109 155.598,51.879 155.493 C 51.468 155.304,51.468 155.306,51.867 155.625 M69.588 156.106 C 78.525 156.137,93.087 156.137,101.948 156.106 C 110.809 156.076,103.497 156.052,85.699 156.052 C 67.902 156.052,60.652 156.076,69.588 156.106 " stroke="none" fill="#97c3aa" fill-rule="evenodd"></path></g></svg>